<svg id="Layer_1" data-name="Layer 1" xmlns="http://www.w3.org/2000/svg" viewBox="0 0 512 512"><title>doc</title><rect width="512" height="512" fill="#696969"/><path d="M380.1,189.21,272.33,81.45a7.89,7.89,0,0,0-4.87-2H141.32a16,16,0,0,0-5.46,1.16l-4.81,4.81a15.89,15.89,0,0,0-1.17,5.47V421.14a16,16,0,0,0,1.17,5.46l4.81,4.8a16,16,0,0,0,5.46,1.17H370.68a16.15,16.15,0,0,0,5.47-1.17l4.8-4.8a16,16,0,0,0,1.17-5.46v-227A7.94,7.94,0,0,0,380.1,189.21ZM374.88,422.8l-2.52,2.52a8.93,8.93,0,0,1-1.67.26H141.32a9.11,9.11,0,0,1-1.67-.26l-2.51-2.52a9,9,0,0,1-.26-1.67V90.87a9,9,0,0,1,.26-1.68l2.51-2.52a9.1,9.1,0,0,1,1.67-.26H264.48V197H375.14V421.14A8.88,8.88,0,0,1,374.88,422.8Z" fill="#fff"/><path d="M370.68,436.25H141.32a19.57,19.57,0,0,1-7-1.5,3.65,3.65,0,0,1-1.1-.76l-4.8-4.8a3.7,3.7,0,0,1-.76-1.1,19.71,19.71,0,0,1-1.5-7V90.87a19.62,19.62,0,0,1,1.5-7,3.7,3.7,0,0,1,.76-1.1l4.8-4.81a3.84,3.84,0,0,1,1.12-.76,19.7,19.7,0,0,1,7-1.48H267.46a11.61,11.61,0,0,1,7.48,3.11L382.7,186.62a11.51,11.51,0,0,1,3.11,7.47v227a20,20,0,0,1-1.48,7,3.75,3.75,0,0,1-.76,1.11l-4.81,4.8a3.47,3.47,0,0,1-1.1.76A19.5,19.5,0,0,1,370.68,436.25ZM140.54,421l.9.89H370.56l.91-.9,0-220.32h-107A3.67,3.67,0,0,1,260.8,197V90.09H141.44l-.9.89ZM268.16,193.33h107a3.67,3.67,0,0,1,3.3,2.05v-1.29a4.57,4.57,0,0,0-.94-2.27L269.73,84.05a4.55,4.55,0,0,0-2.27-.95h-1.36a3.7,3.7,0,0,1,2.07,3.31Z" fill="#fff"/><path d="M192.66,305.07H186v38.09h6.7c5.87,0,10.46-1.75,13.82-5.27s5-8.32,5-14.38q0-8.57-5-13.51T192.66,305.07Z" fill="#fff"/><path d="M259.55,304.69A13.65,13.65,0,0,0,248.23,310q-4.18,5.34-4.2,14.14t4.2,14.13a14.46,14.46,0,0,0,22.09.15c2.74-3.37,4.09-8,4.09-14q0-9.35-4-14.54A13,13,0,0,0,259.55,304.69Z" fill="#fff"/><path d="M373.6,270H138.41a6.59,6.59,0,0,0-6.6,6.58v95.11a6.59,6.59,0,0,0,6.6,6.56H373.6a6.57,6.57,0,0,0,6.59-6.56V276.57A6.57,6.57,0,0,0,373.6,270ZM217.08,345.76q-8.76,8.38-23.29,8.38H172.5V294.06h21.28q32,0,32,29.28Q225.81,337.39,217.08,345.76Zm63.35.76q-8.25,8.68-21.48,8.68-12.92,0-21-8.4t-8.13-21.9q0-14.25,8.26-23t21.87-8.8q12.87,0,20.82,8.43t7.94,22.21Q288.67,337.84,280.44,346.51ZM339.5,308.3a26.23,26.23,0,0,0-13.74-3.61q-8.47,0-13.67,5.32t-5.19,14.42c0,5.8,1.64,10.44,4.9,13.89s7.67,5.18,13.2,5.18a28.29,28.29,0,0,0,14.51-3.86V352q-6.58,3.18-17.19,3.18-13.82,0-21.74-8.12t-7.92-21.67q0-14.42,8.9-23.4t23.12-9a43.15,43.15,0,0,1,14.83,2.22Z" fill="#fff"/></svg>