<svg id="Layer_1" data-name="Layer 1" xmlns="http://www.w3.org/2000/svg" viewBox="0 0 512 512"><title>jpg-file-flat</title><rect y="9.14" width="512" height="493.72" rx="54.99" ry="54.99" transform="translate(512) rotate(90)" fill="#e6d6a6"/><rect x="20.23" y="11.1" width="471.53" height="489.81" rx="43.89" ry="43.89" fill="#809b52"/><path d="M269.59,88.2l-.05-.05H145.7a9.59,9.59,0,0,0-9.59,9.59V414.26a9.6,9.6,0,0,0,9.59,9.59H366.31a9.59,9.59,0,0,0,9.59-9.59V194.5H269.59Z" fill="#39bfb8"/><polygon points="269.59 194.49 375.89 194.49 269.59 88.2 269.59 194.49" fill="#4fcac1"/><polygon points="375.9 300.79 375.9 194.5 375.89 194.49 269.59 194.49 269.59 194.49 375.9 300.79" fill="#333" opacity="0.1"/><path d="M217.51,353.56q0,11.47-5.32,17.57t-15.4,6.09a21.9,21.9,0,0,1-8.32-1.55V363.6a12,12,0,0,0,7.41,2.51q8.8,0,8.8-13.07V319.1h12.83Z" fill="#eff0f0"/><path d="M240.77,356.55v19.68H227.9V319.1h20.16q21.59,0,21.59,18.2a17.48,17.48,0,0,1-6.19,13.93q-6.2,5.32-16.55,5.32Zm0-27.57v17.81h5.06q10.28,0,10.28-9,0-8.8-10.28-8.8Z" fill="#eff0f0"/><path d="M322.39,372.41q-8.37,4.82-20.8,4.82-13.78,0-21.73-7.63t-7.95-21q0-13.47,8.69-22t23.11-8.48a46.94,46.94,0,0,1,16,2.51v12.07q-6.61-3.82-16.17-3.82a17.38,17.38,0,0,0-13.05,5.2q-5,5.2-5,13.88T290,361.61q4.52,4.82,12.21,4.82a17,17,0,0,0,7.33-1.32V354H298.09V343.68h24.3Z" fill="#eff0f0"/></svg>