<svg id="Layer_1" data-name="Layer 1" xmlns="http://www.w3.org/2000/svg" viewBox="0 0 512 512"><title>mp4-file-flat</title><path d="M55,9.14H457a55,55,0,0,1,55,55V447.88a55,55,0,0,1-55,55H55a55,55,0,0,1-55-55V64.12A55,55,0,0,1,55,9.14Z" transform="translate(512) rotate(90)" fill="#e6d6a6"/><rect x="20.23" y="11.1" width="471.53" height="489.81" rx="43.89" ry="43.89" fill="#e48034"/><path d="M269.59,88.2l-.05-.05H145.7a9.59,9.59,0,0,0-9.59,9.59V414.26a9.6,9.6,0,0,0,9.59,9.59H366.31a9.59,9.59,0,0,0,9.59-9.59V194.5H269.59Z" fill="#fcc15a"/><polygon points="269.59 194.49 375.89 194.49 269.59 88.2 269.59 194.49" fill="#fdcc86"/><polygon points="375.9 300.79 375.9 194.5 375.89 194.49 269.59 194.49 269.59 194.49 375.9 300.79" fill="#333" opacity="0.1"/><path d="M243.25,376.23H230.54V342q0-5.54.48-12.23h-.32a60.19,60.19,0,0,1-1.79,7.57l-13.39,38.84H205l-13.63-38.44a74.9,74.9,0,0,1-1.79-8h-.36q.52,8.45.52,14.82v31.59H178.15V319.1H197L208.66,353a47.68,47.68,0,0,1,2,8.17h.24a82.3,82.3,0,0,1,2.27-8.25l11.67-33.78h18.37Z" fill="#eff0f0"/><path d="M267,356.55v19.68H254.11V319.1h20.16q21.59,0,21.59,18.21a17.46,17.46,0,0,1-6.19,13.92q-6.19,5.32-16.55,5.32ZM267,329v17.81H272q10.28,0,10.28-9,0-8.8-10.28-8.81Z" fill="#eff0f0"/><path d="M340.36,364.08h-6.85v12.15H322V364.08h-24.9v-8l24-37h12.39v36h6.85Zm-18.17-32.39H322a49.22,49.22,0,0,1-2.15,4.46l-12.23,19H322v-18Q322,334.76,322.19,331.69Z" fill="#eff0f0"/></svg>