<svg id="Layer_1" data-name="Layer 1" xmlns="http://www.w3.org/2000/svg" viewBox="0 0 512 512"><title>txt</title><rect width="512" height="512" fill="#4c76b8"/><path d="M380.1,189.21,272.34,81.45a8,8,0,0,0-4.88-2H141.32a16.12,16.12,0,0,0-5.47,1.16l-4.8,4.81a15.91,15.91,0,0,0-1.17,5.47V421.14a16,16,0,0,0,1.17,5.46l4.8,4.8a16.15,16.15,0,0,0,5.47,1.17H370.68a16.16,16.16,0,0,0,5.47-1.17l4.8-4.8a16,16,0,0,0,1.17-5.46v-227A7.94,7.94,0,0,0,380.1,189.21ZM374.86,422.8l-2.51,2.52a8.92,8.92,0,0,1-1.67.26H141.32a9.12,9.12,0,0,1-1.67-.26l-2.51-2.52a9,9,0,0,1-.26-1.67V90.87a8.9,8.9,0,0,1,.26-1.68l2.51-2.52a9.11,9.11,0,0,1,1.67-.26H264.48V197H375.14V421.14A9.2,9.2,0,0,1,374.86,422.8Z" fill="#fff"/><path d="M370.68,436.25H141.32a19.57,19.57,0,0,1-7-1.5,3.72,3.72,0,0,1-1.11-.76l-4.8-4.8a3.91,3.91,0,0,1-.75-1.09,19.68,19.68,0,0,1-1.5-7V90.87a19.31,19.31,0,0,1,1.51-7,3.53,3.53,0,0,1,.73-1.09l4.8-4.81a3.63,3.63,0,0,1,1.13-.77,19.7,19.7,0,0,1,7-1.47H267.46a11.69,11.69,0,0,1,7.48,3.1L382.7,186.62a11.55,11.55,0,0,1,3.11,7.47v227a19.64,19.64,0,0,1-1.5,7,3.65,3.65,0,0,1-.75,1.1l-4.81,4.8a3.72,3.72,0,0,1-1.09.76A19.65,19.65,0,0,1,370.68,436.25ZM140.54,421l.89.89H370.56l.9-.89V200.68h-107A3.67,3.67,0,0,1,260.8,197V90.09H141.44l-.89.89Zm127.6-227.68h107a3.66,3.66,0,0,1,3.3,2.07v-1.31a4.57,4.57,0,0,0-.94-2.27L269.73,84.05a4.6,4.6,0,0,0-2.27-.95h-1.38a3.63,3.63,0,0,1,1,.71,3.68,3.68,0,0,1,1.09,2.6Z" fill="#fff"/><path d="M373.6,270H138.4a6.58,6.58,0,0,0-6.59,6.58v95.11a6.57,6.57,0,0,0,6.59,6.56H373.6a6.58,6.58,0,0,0,6.59-6.56V276.57A6.58,6.58,0,0,0,373.6,270ZM211.16,354.16H197.57V305.09H180.51v-11h47.78v11H211.16Zm55.77,0L256.57,334.6a16.51,16.51,0,0,1-1.22-4h-.16a31.45,31.45,0,0,1-1.39,4.2l-10.4,19.4H227.28l19.14-30-17.51-30h16.47l8.58,18a30.68,30.68,0,0,1,1.8,5.08h.18c.34-1.18,1-2.92,1.88-5.24l9.55-17.84h15.09l-18,29.79L283,354.16Zm64.56-49.08H314.35v49.08H300.77V305.09H283.71v-11h47.78Z" fill="#fff"/></svg>