<svg id="Layer_1" data-name="Layer 1" xmlns="http://www.w3.org/2000/svg" viewBox="0 0 512 512"><title>gif-file-flat</title><rect y="9.14" width="512" height="493.72" rx="54.99" ry="54.99" transform="translate(512) rotate(90)" fill="#e6d6a6"/><rect x="20.24" y="11.1" width="471.53" height="489.81" rx="43.89" ry="43.89" fill="#b9a468"/><path d="M269.59,88.2l-.05-.06H145.69a9.59,9.59,0,0,0-9.59,9.59V414.27a9.59,9.59,0,0,0,9.59,9.59H366.31a9.59,9.59,0,0,0,9.59-9.59V194.5H269.59Z" fill="#eb5959"/><polygon points="269.59 194.49 375.88 194.49 269.59 88.2 269.59 194.49" fill="#f27878"/><polygon points="375.89 300.79 375.89 194.5 375.88 194.49 269.59 194.49 269.59 194.49 375.89 300.79" fill="#333" opacity="0.1"/><path d="M249.46,372.41q-8.37,4.82-20.8,4.82-13.78,0-21.73-7.63t-7.95-21q0-13.47,8.68-22t23.11-8.49a46.93,46.93,0,0,1,16,2.51v12.07q-6.61-3.82-16.18-3.82a17.36,17.36,0,0,0-13,5.2q-5,5.2-5,13.88T217,361.61q4.52,4.82,12.21,4.82a17,17,0,0,0,7.33-1.31V354H225.16V343.69h24.3Z" fill="#eff0f0"/><path d="M276.1,319.1v10h-4.78v37.21h4.78v10H253.67v-10h4.78V329.06h-4.78v-10Z" fill="#eff0f0"/><path d="M315.22,329.58H295.06v14h18.53V354H295.06v22.19H282.19V319.1h33Z" fill="#eff0f0"/></svg>